# xmcd CD database file
#
# Track frame offsets:
#	150
#	20075
#	39987
#	59375
#
# Disc length: 1048 seconds
#
# Revision: 0
# Processed by: cddbd v1.5.1PL0 Copyright (c) Steve Scherf et al.
# Submitted via: CDex 1.51
#
DISCID=2d041604
DTITLE=横山やすし - 俺は浪花の漫才師
DYEAR=1996
DGENRE=未分類 (日本)
TTITLE0=俺は浪花の漫才師
TTITLE1=俺は浪花の漫才師（カラオケ）
TTITLE2=一ツ星
TTITLE3=一ツ星（カラオケ）
EXTD=YEAR: 1996
EXTT0=
EXTT1=
EXTT2=
EXTT3=
PLAYORDER=
